<svg width="92" height="92" viewBox="0 0 92 92" fill="none" xmlns="http://www.w3.org/2000/svg">
<path opacity="0.5" d="M7.6665 61.3335C7.6665 50.4928 7.6665 45.0687 11.036 41.703C14.4017 38.3335 19.8258 38.3335 30.6665 38.3335H61.3332C72.1738 38.3335 77.598 38.3335 80.9637 41.703C84.3332 45.0687 84.3332 50.4928 84.3332 61.3335C84.3332 72.1742 84.3332 77.5983 80.9637 80.964C77.598 84.3335 72.1738 84.3335 61.3332 84.3335H30.6665C19.8258 84.3335 14.4017 84.3335 11.036 80.964C7.6665 77.5983 7.6665 72.1742 7.6665 61.3335Z" fill="#F0AD4E"/>
<path d="M30.6667 65.1665C31.6833 65.1665 32.6584 64.7626 33.3772 64.0437C34.0961 63.3249 34.5 62.3498 34.5 61.3332C34.5 60.3165 34.0961 59.3415 33.3772 58.6226C32.6584 57.9037 31.6833 57.4998 30.6667 57.4998C29.65 57.4998 28.675 57.9037 27.9561 58.6226C27.2372 59.3415 26.8333 60.3165 26.8333 61.3332C26.8333 62.3498 27.2372 63.3249 27.9561 64.0437C28.675 64.7626 29.65 65.1665 30.6667 65.1665ZM46 65.1665C47.0167 65.1665 47.9917 64.7626 48.7106 64.0437C49.4295 63.3249 49.8333 62.3498 49.8333 61.3332C49.8333 60.3165 49.4295 59.3415 48.7106 58.6226C47.9917 57.9037 47.0167 57.4998 46 57.4998C44.9833 57.4998 44.0083 57.9037 43.2894 58.6226C42.5705 59.3415 42.1667 60.3165 42.1667 61.3332C42.1667 62.3498 42.5705 63.3249 43.2894 64.0437C44.0083 64.7626 44.9833 65.1665 46 65.1665ZM65.1667 61.3332C65.1667 62.3498 64.7628 63.3249 64.0439 64.0437C63.325 64.7626 62.35 65.1665 61.3333 65.1665C60.3167 65.1665 59.3416 64.7626 58.6228 64.0437C57.9039 63.3249 57.5 62.3498 57.5 61.3332C57.5 60.3165 57.9039 59.3415 58.6228 58.6226C59.3416 57.9037 60.3167 57.4998 61.3333 57.4998C62.35 57.4998 63.325 57.9037 64.0439 58.6226C64.7628 59.3415 65.1667 60.3165 65.1667 61.3332ZM25.875 30.6665C25.875 25.329 27.9953 20.2101 31.7695 16.436C35.5436 12.6618 40.6625 10.5415 46 10.5415C51.3375 10.5415 56.4564 12.6618 60.2305 16.436C64.0047 20.2101 66.125 25.329 66.125 30.6665V38.3485C68.2985 38.3677 70.2037 38.4175 71.875 38.5402V30.6665C71.875 23.804 69.1489 17.2226 64.2964 12.3701C59.4439 7.51761 52.8625 4.7915 46 4.7915C39.1375 4.7915 32.5561 7.51761 27.7036 12.3701C22.8511 17.2226 20.125 23.804 20.125 30.6665V38.544C22.0392 38.4189 23.9568 38.3537 25.875 38.3485V30.6665Z" fill="#F0AD4E"/>
</svg>
