<svg width="92" height="92" viewBox="0 0 92 92" fill="none" xmlns="http://www.w3.org/2000/svg">
<path opacity="0.4" d="M57.5 34.5C63.8513 34.5 69 29.3513 69 23C69 16.6487 63.8513 11.5 57.5 11.5C51.1487 11.5 46 16.6487 46 23C46 29.3513 51.1487 34.5 57.5 34.5Z" fill="#F0AD4E"/>
<path opacity="0.4" d="M61.3332 76.6665C71.9186 76.6665 80.4998 71.5178 80.4998 65.1665C80.4998 58.8152 71.9186 53.6665 61.3332 53.6665C50.7477 53.6665 42.1665 58.8152 42.1665 65.1665C42.1665 71.5178 50.7477 76.6665 61.3332 76.6665Z" fill="#F0AD4E"/>
<path d="M34.5037 38.3332C42.9721 38.3332 49.8371 31.4682 49.8371 22.9998C49.8371 14.5315 42.9721 7.6665 34.5037 7.6665C26.0354 7.6665 19.1704 14.5315 19.1704 22.9998C19.1704 31.4682 26.0354 38.3332 34.5037 38.3332Z" fill="#F0AD4E"/>
<path d="M34.5037 80.5041C49.3234 80.5041 61.3371 73.6391 61.3371 65.1707C61.3371 56.7024 49.3234 49.8374 34.5037 49.8374C19.6841 49.8374 7.67041 56.7024 7.67041 65.1707C7.67041 73.6391 19.6841 80.5041 34.5037 80.5041Z" fill="#F0AD4E"/>
</svg>
