<svg width="92" height="92" viewBox="0 0 92 92" fill="none" xmlns="http://www.w3.org/2000/svg">
<path opacity="0.5" d="M53.6665 15.3335H38.3332C23.8777 15.3335 16.648 15.3335 12.1592 19.8262C7.67034 24.3188 7.6665 31.5447 7.6665 46.0002C7.6665 60.4557 7.6665 67.6853 12.1592 72.1742C16.6518 76.663 23.8777 76.6668 38.3332 76.6668H53.6665C68.122 76.6668 75.3517 76.6668 79.8405 72.1742C84.3293 67.6815 84.3332 60.4557 84.3332 46.0002C84.3332 31.5447 84.3332 24.315 79.8405 19.8262C75.3478 15.3373 68.122 15.3335 53.6665 15.3335Z" fill="#8FC32B"/>
<path d="M50.7915 34.5002C50.7915 33.7377 51.0944 33.0064 51.6336 32.4672C52.1727 31.9281 52.904 31.6252 53.6665 31.6252H72.8332C73.5957 31.6252 74.3269 31.9281 74.8661 32.4672C75.4053 33.0064 75.7082 33.7377 75.7082 34.5002C75.7082 35.2627 75.4053 35.9939 74.8661 36.5331C74.3269 37.0723 73.5957 37.3752 72.8332 37.3752H53.6665C52.904 37.3752 52.1727 37.0723 51.6336 36.5331C51.0944 35.9939 50.7915 35.2627 50.7915 34.5002ZM54.6248 46.0002C54.6248 45.2377 54.9277 44.5064 55.4669 43.9672C56.0061 43.4281 56.7373 43.1252 57.4998 43.1252H72.8332C73.5957 43.1252 74.3269 43.4281 74.8661 43.9672C75.4053 44.5064 75.7082 45.2377 75.7082 46.0002C75.7082 46.7627 75.4053 47.4939 74.8661 48.0331C74.3269 48.5723 73.5957 48.8752 72.8332 48.8752H57.4998C56.7373 48.8752 56.0061 48.5723 55.4669 48.0331C54.9277 47.4939 54.6248 46.7627 54.6248 46.0002ZM58.4582 57.5002C58.4582 56.7377 58.7611 56.0064 59.3002 55.4672C59.8394 54.9281 60.5707 54.6252 61.3332 54.6252H72.8332C73.5957 54.6252 74.3269 54.9281 74.8661 55.4672C75.4053 56.0064 75.7082 56.7377 75.7082 57.5002C75.7082 58.2627 75.4053 58.9939 74.8661 59.5331C74.3269 60.0723 73.5957 60.3752 72.8332 60.3752H61.3332C60.5707 60.3752 59.8394 60.0723 59.3002 59.5331C58.7611 58.9939 58.4582 58.2627 58.4582 57.5002ZM34.4998 42.1668C36.5332 42.1668 38.4832 41.3591 39.921 39.9213C41.3588 38.4835 42.1665 36.5335 42.1665 34.5002C42.1665 32.4668 41.3588 30.5168 39.921 29.079C38.4832 27.6412 36.5332 26.8335 34.4998 26.8335C32.4665 26.8335 30.5165 27.6412 29.0787 29.079C27.6409 30.5168 26.8332 32.4668 26.8332 34.5002C26.8332 36.5335 27.6409 38.4835 29.0787 39.9213C30.5165 41.3591 32.4665 42.1668 34.4998 42.1668ZM34.4998 65.1668C49.8332 65.1668 49.8332 61.736 49.8332 57.5002C49.8332 53.2643 42.9715 49.8335 34.4998 49.8335C26.0282 49.8335 19.1665 53.2643 19.1665 57.5002C19.1665 61.736 19.1665 65.1668 34.4998 65.1668Z" fill="#8FC32B"/>
</svg>
