<svg width="92" height="92" viewBox="0 0 92 92" fill="none" xmlns="http://www.w3.org/2000/svg">
<path opacity="0.5" d="M77.8663 42.7687C77.9148 47.409 77.0427 52.0128 75.3005 56.3138C73.5583 60.6149 70.9806 64.5278 67.7165 67.8262C64.4523 71.1247 60.5666 73.7431 56.284 75.5302C52.0013 77.3172 47.4069 78.2374 42.7664 78.2374C38.1259 78.2374 33.5314 77.3172 29.2488 75.5302C24.9662 73.7431 21.0804 71.1247 17.8163 67.8262C14.5521 64.5278 11.9744 60.6149 10.2322 56.3138C8.49005 52.0128 7.61797 47.409 7.66647 42.7687C7.76309 33.5232 11.5037 24.6891 18.0757 18.1854C24.6477 11.6817 33.5203 8.03369 42.7664 8.03369C52.0124 8.03369 60.8851 11.6817 67.4571 18.1854C74.0291 24.6891 77.7697 33.5232 77.8663 42.7687Z" fill="#F0AD4E"/>
<path d="M65.5498 69.4675L79.6028 83.5205C80.1223 84.0405 80.8271 84.3328 81.5622 84.3332C82.2973 84.3336 83.0024 84.0419 83.5224 83.5224C84.0424 83.0029 84.3348 82.2981 84.3351 81.563C84.3355 80.8279 84.0438 80.1228 83.5243 79.6028L69.4675 65.5498C68.2687 66.9586 66.9586 68.2687 65.5498 69.4675Z" fill="#F0AD4E"/>
</svg>
