<svg width="92" height="92" viewBox="0 0 92 92" fill="none" xmlns="http://www.w3.org/2000/svg">
<path d="M42.1668 38.3332C50.6352 38.3332 57.5002 31.4682 57.5002 22.9998C57.5002 14.5315 50.6352 7.6665 42.1668 7.6665C33.6985 7.6665 26.8335 14.5315 26.8335 22.9998C26.8335 31.4682 33.6985 38.3332 42.1668 38.3332Z" fill="#8FC32B"/>
<path fill-rule="evenodd" clip-rule="evenodd" d="M55.633 82.3668C57.5957 84.3333 60.7582 84.3333 67.0832 84.3333C73.4082 84.3333 76.5707 84.3333 78.5333 82.3668C80.4998 80.4042 80.4998 77.2417 80.4998 70.9167C80.4998 64.5917 80.4998 61.4292 78.5333 59.4665C76.5707 57.5 73.4082 57.5 67.0832 57.5C60.7582 57.5 57.5957 57.5 55.633 59.4665C53.6665 61.4292 53.6665 64.5917 53.6665 70.9167C53.6665 77.2417 53.6665 80.4042 55.633 82.3668ZM63.3533 76.5785C60.6585 74.6503 57.4998 72.3848 57.4998 68.4633C57.4998 64.1317 62.7707 61.0612 67.0832 65.2242C71.3957 61.0573 76.6665 64.1317 76.6665 68.4633C76.6665 72.3848 73.504 74.6503 70.813 76.5785L69.9965 77.1688C68.9998 77.8972 68.0415 78.5833 67.0832 78.5833C66.1248 78.5833 65.1665 77.8933 64.1698 77.165L63.3533 76.5785Z" fill="#8FC32B"/>
<path opacity="0.5" d="M55.9437 82.6582C55.8348 82.5669 55.7312 82.4696 55.6332 82.3668C53.6667 80.4042 53.6667 77.2417 53.6667 70.9167C53.6667 64.5917 53.6667 61.4292 55.6332 59.4665C57.5958 57.5 60.7583 57.5 67.0833 57.5H68.7317C63.4302 52.3442 53.5172 48.875 42.1667 48.875C25.231 48.875 11.5 56.5992 11.5 66.125C11.5 75.6508 11.5 83.375 42.1667 83.375C47.6982 83.375 52.2292 83.122 55.9437 82.6582Z" fill="#8FC32B"/>
</svg>
