<svg width="92" height="92" viewBox="0 0 92 92" fill="none" xmlns="http://www.w3.org/2000/svg">
<path opacity="0.5" d="M45.9998 84.3332C67.1713 84.3332 84.3332 67.1713 84.3332 45.9998C84.3332 24.8283 67.1713 7.6665 45.9998 7.6665C24.8283 7.6665 7.6665 24.8283 7.6665 45.9998C7.6665 52.1332 9.10784 57.9292 11.6647 63.0697C12.347 64.4343 12.5732 65.9945 12.1783 67.4703L9.8975 76.0033C9.67161 76.8478 9.67181 77.7368 9.8981 78.5812C10.1244 79.4255 10.5688 80.1955 11.1867 80.8138C11.8046 81.4321 12.5743 81.877 13.4185 82.1038C14.2627 82.3306 15.1517 82.3314 15.9963 82.106L24.5293 79.8213C26.0105 79.4471 27.5774 79.6285 28.9338 80.3312C34.2351 82.9707 40.0778 84.3408 45.9998 84.3332Z" fill="#8FC32B"/>
<path d="M48.8752 30.6665C48.8752 29.904 48.5723 29.1727 48.0331 28.6336C47.4939 28.0944 46.7627 27.7915 46.0002 27.7915C45.2377 27.7915 44.5064 28.0944 43.9672 28.6336C43.4281 29.1727 43.1252 29.904 43.1252 30.6665V30.7048C38.9507 31.759 35.4585 35.048 35.4585 39.6097C35.4585 45.1948 40.691 48.8748 46.0002 48.8748C49.1588 48.8748 50.7918 50.918 50.7918 52.39C50.7918 53.862 49.1588 55.9013 46.0002 55.9013C42.8415 55.9013 41.2085 53.862 41.2085 52.39C41.2085 51.6275 40.9056 50.8962 40.3664 50.3571C39.8273 49.8179 39.096 49.515 38.3335 49.515C37.571 49.515 36.8397 49.8179 36.3006 50.3571C35.7614 50.8962 35.4585 51.6275 35.4585 52.39C35.4585 56.9517 38.9507 60.2445 43.1252 61.2948V61.3332C43.1252 62.0957 43.4281 62.8269 43.9672 63.3661C44.5064 63.9053 45.2377 64.2082 46.0002 64.2082C46.7627 64.2082 47.4939 63.9053 48.0331 63.3661C48.5723 62.8269 48.8752 62.0957 48.8752 61.3332V61.2948C53.0497 60.2445 56.5418 56.9517 56.5418 52.39C56.5418 46.8048 51.3093 43.1248 46.0002 43.1248C42.8415 43.1248 41.2085 41.0817 41.2085 39.6097C41.2085 38.1377 42.8415 36.0983 46.0002 36.0983C49.1588 36.0983 50.7918 38.1377 50.7918 39.6097C50.7918 40.3722 51.0947 41.1034 51.6339 41.6426C52.1731 42.1818 52.9043 42.4847 53.6668 42.4847C54.4293 42.4847 55.1606 42.1818 55.6998 41.6426C56.2389 41.1034 56.5418 40.3722 56.5418 39.6097C56.5418 35.048 53.0497 31.759 48.8752 30.7048V30.6665Z" fill="#8FC32B"/>
</svg>
